# xmcd
#
# Track frame offsets:
# 150
# 12715
# 35601
# 48791
# 74592
# 87817
# 103481
# 115823
# 137003
# 155122
# 173797
# 189326
#
# Disc length: 2825 seconds
#
#
# Revision: 0
# Processed by: cddbd v1.5.1PL0 Copyright (c) Steve Scherf et al.
# Submitted via: FreeRIP 2.91 
#
DISCID=a80b070c
DTITLE=LordSong - LordSong
DYEAR=2001
DGENRE=Contemporary Christian
TTITLE0=Just Another Rainy Day
TTITLE1=He Was Drawn
TTITLE2=I'll Consider My Source
TTITLE3=Such A Time Is This
TTITLE4=Church Will Remain
TTITLE5=Calvary's Story
TTITLE6=We're In This Boat Together
TTITLE7=It Is Finished Started It All
TTITLE8=Counting Sheep
TTITLE9=Live To Tell
TTITLE10=Trial Of The Heart
TTITLE11=To Be Forgiven
EXTD=
EXTT0=
EXTT1=
EXTT2=
EXTT3=
EXTT4=
EXTT5=
EXTT6=
EXTT7=
EXTT8=
EXTT9=
EXTT10=
EXTT11=
PLAYORDER=
